{"title":"Branca - Creampie-Mature 720p.wmv","uid":8951995,"size":1103403581,"categoryP":"porn","categoryS":"movie_clips","magnet":"?xt=urn:btih:c221904c52ae3a9247a5f8c5182a13fa44cb8ea9&amp;dn=Branca+-+Creampie-Mature+720p.wmv&amp;tr=udp%3A%2F%2Ftracker.openbittorrent.com%3A80&amp;tr=udp%3A%2F%2Fopen.demonii.com%3A1337&amp;tr=udp%3A%2F%2Ftracker.coppersurfer.tk%3A6969&amp;tr=udp%3A%2F%2Fexodus.desync.com%3A6969","seeders":0,"leechers":2,"uploader":null,"files":1,"time":1379905497,"description":" &lt;a href=&quot;http://bayimg.com/bapgeAaeO&quot; rel=&quot;nofollow&quot; target=&quot;_NEW&quot;&gt;http://bayimg.com/bapgeAaeO&lt;/a&gt;\n\n\n\nBranca is a horny mature women with a hungry pussy. She like a hard sex with a young guys and hot cocks... Check this 1on1 scene as they fuck on the sofa and she gets an anal creampie.\n\n\nFormat : Windows Media\nFile size : 1.03 GiB\nDuration : 31mn 13s\nOverall bit rate mode : Constant\nOverall bit rate : 4 711 Kbps\nMaximum Overall bit rate : 4 729 Kbps\nEncoded date : UTC 2010-01-19 12:30:11.939\nWriting application : TMPGEnc 4.0 XPress Version. 4.6.3.268\n\nVideo\nID : 2\nFormat : VC-1\nFormat profile : Advanced@L2\nCodec ID : WVC1\nCodec ID/Hint : Microsoft\nDescription of the codec : Windows Media Video 9 Advanced Profile\nDuration : 31mn 13s\nBit rate mode : Constant\nBit rate : 4 500 Kbps\nWidth : 1 280 pixels\nHeight : 720 pixels\nDisplay aspect ratio : 16:9\nFrame rate : 25.000 fps\nChroma subsampling : 4:2:0\nBit depth : 8 bits\nScan type : Progressive\nCompression mode : Lossy\nBits/(Pixel*Frame) : 0.195\nStream size : 1 005 MiB (96%)\nLanguage : English (US)\n\nAudio\nID : 1\nFormat : WMA\nFormat version : Version 2\nCodec ID : 161\nCodec ID/Info : Windows Media Audio\nDescription of the codec : Windows Media Audio 9.2 - 192 kbps, 48 kHz, stereo 1-pass CBR\nDuration : 31mn 13s\nBit rate mode : Constant\nBit rate : 192 Kbps\nChannel(s) : 2 channels\nSampling rate : 48.0 KHz\nBit depth : 16 bits\nStream size : 42.9 MiB (4%)\nLanguage : English (US)","torrent":{"xt":"urn:btih:c221904c52ae3a9247a5f8c5182a13fa44cb8ea9","amp;dn":"Branca+-+Creampie-Mature+720p.wmv","amp;tr":["udp%3A%2F%2Ftracker.openbittorrent.com%3A80","udp%3A%2F%2Fopen.demonii.com%3A1337","udp%3A%2F%2Ftracker.coppersurfer.tk%3A6969","udp%3A%2F%2Fexodus.desync.com%3A6969"],"infoHash":"c221904c52ae3a9247a5f8c5182a13fa44cb8ea9","infoHashBuffer":{"type":"Buffer","data":[194,33,144,76,82,174,58,146,71,165,248,197,24,42,19,250,68,203,142,169]},"announce":[],"urlList":[]}}